<mxfile host="app.diagrams.net" modified="2024-05-12T01:04:36.173Z" agent="Mozilla/5.0 (X11; Ubuntu; Linux x86_64; rv:125.0) Gecko/20100101 Firefox/125.0" etag="ABn0lYbSMEA66bchvpRD" version="24.4.0" type="github">
  <diagram name="Page-1" id="YwyaiJk9tJbsXuyATQ5N">
    <mxGraphModel dx="685" dy="660" grid="1" gridSize="10" guides="1" tooltips="1" connect="1" arrows="1" fold="1" page="1" pageScale="1" pageWidth="850" pageHeight="1100" math="0" shadow="0">
      <root>
        <mxCell id="0" />
        <mxCell id="1" parent="0" />
        <mxCell id="2npnaE28Xi_mpmvtPkLY-3" value="" style="edgeStyle=orthogonalEdgeStyle;rounded=0;orthogonalLoop=1;jettySize=auto;html=1;shape=link;" edge="1" parent="1" source="2npnaE28Xi_mpmvtPkLY-1" target="2npnaE28Xi_mpmvtPkLY-2">
          <mxGeometry relative="1" as="geometry" />
        </mxCell>
        <mxCell id="2npnaE28Xi_mpmvtPkLY-1" value="&lt;div&gt;enc_blocks&lt;/div&gt;" style="rounded=1;whiteSpace=wrap;html=1;" vertex="1" parent="1">
          <mxGeometry x="120" y="320" width="200" height="40" as="geometry" />
        </mxCell>
        <mxCell id="2npnaE28Xi_mpmvtPkLY-2" value="" style="whiteSpace=wrap;html=1;rounded=1;opacity=50;fillColor=#dae8fc;strokeColor=#6c8ebf;" vertex="1" parent="1">
          <mxGeometry x="510" y="125" width="280" height="415" as="geometry" />
        </mxCell>
        <mxCell id="2npnaE28Xi_mpmvtPkLY-4" value="layernorm1" style="rounded=1;whiteSpace=wrap;html=1;" vertex="1" parent="1">
          <mxGeometry x="550" y="145" width="200" height="40" as="geometry" />
        </mxCell>
        <mxCell id="2npnaE28Xi_mpmvtPkLY-17" value="" style="edgeStyle=orthogonalEdgeStyle;rounded=0;orthogonalLoop=1;jettySize=auto;html=1;shape=link;" edge="1" parent="1" source="2npnaE28Xi_mpmvtPkLY-5" target="2npnaE28Xi_mpmvtPkLY-16">
          <mxGeometry relative="1" as="geometry" />
        </mxCell>
        <mxCell id="2npnaE28Xi_mpmvtPkLY-5" value="self attention + RoPE" style="rounded=1;whiteSpace=wrap;html=1;" vertex="1" parent="1">
          <mxGeometry x="550" y="205" width="200" height="40" as="geometry" />
        </mxCell>
        <mxCell id="2npnaE28Xi_mpmvtPkLY-6" value="Drop Path" style="rounded=1;whiteSpace=wrap;html=1;fillColor=#f8cecc;strokeColor=#b85450;" vertex="1" parent="1">
          <mxGeometry x="550" y="265" width="200" height="40" as="geometry" />
        </mxCell>
        <mxCell id="2npnaE28Xi_mpmvtPkLY-7" value="layernorm2" style="rounded=1;whiteSpace=wrap;html=1;" vertex="1" parent="1">
          <mxGeometry x="550" y="345" width="200" height="40" as="geometry" />
        </mxCell>
        <mxCell id="2npnaE28Xi_mpmvtPkLY-8" value="MLP" style="rounded=1;whiteSpace=wrap;html=1;" vertex="1" parent="1">
          <mxGeometry x="550" y="400" width="200" height="40" as="geometry" />
        </mxCell>
        <mxCell id="2npnaE28Xi_mpmvtPkLY-9" value="Drop Path" style="rounded=1;whiteSpace=wrap;html=1;fillColor=#f8cecc;strokeColor=#b85450;" vertex="1" parent="1">
          <mxGeometry x="550" y="460" width="200" height="40" as="geometry" />
        </mxCell>
        <mxCell id="2npnaE28Xi_mpmvtPkLY-11" value="" style="endArrow=classic;html=1;rounded=0;entryX=0.5;entryY=0;entryDx=0;entryDy=0;" edge="1" parent="1" target="2npnaE28Xi_mpmvtPkLY-4">
          <mxGeometry width="50" height="50" relative="1" as="geometry">
            <mxPoint x="650" y="90" as="sourcePoint" />
            <mxPoint x="620" y="310" as="targetPoint" />
          </mxGeometry>
        </mxCell>
        <mxCell id="2npnaE28Xi_mpmvtPkLY-12" value="" style="endArrow=classic;html=1;rounded=0;" edge="1" parent="1">
          <mxGeometry width="50" height="50" relative="1" as="geometry">
            <mxPoint x="650" y="130" as="sourcePoint" />
            <mxPoint x="650" y="320" as="targetPoint" />
            <Array as="points">
              <mxPoint x="760" y="130" />
              <mxPoint x="760" y="320" />
            </Array>
          </mxGeometry>
        </mxCell>
        <mxCell id="2npnaE28Xi_mpmvtPkLY-13" value="" style="endArrow=classic;html=1;rounded=0;" edge="1" parent="1">
          <mxGeometry width="50" height="50" relative="1" as="geometry">
            <mxPoint x="649.76" y="305" as="sourcePoint" />
            <mxPoint x="650" y="340" as="targetPoint" />
          </mxGeometry>
        </mxCell>
        <mxCell id="2npnaE28Xi_mpmvtPkLY-14" value="" style="endArrow=classic;html=1;rounded=0;" edge="1" parent="1">
          <mxGeometry width="50" height="50" relative="1" as="geometry">
            <mxPoint x="650" y="320" as="sourcePoint" />
            <mxPoint x="650" y="510" as="targetPoint" />
            <Array as="points">
              <mxPoint x="760" y="320" />
              <mxPoint x="760" y="510" />
            </Array>
          </mxGeometry>
        </mxCell>
        <mxCell id="2npnaE28Xi_mpmvtPkLY-15" value="" style="endArrow=classic;html=1;rounded=0;" edge="1" parent="1">
          <mxGeometry width="50" height="50" relative="1" as="geometry">
            <mxPoint x="649.76" y="500" as="sourcePoint" />
            <mxPoint x="650" y="550" as="targetPoint" />
          </mxGeometry>
        </mxCell>
        <mxCell id="2npnaE28Xi_mpmvtPkLY-16" value="" style="whiteSpace=wrap;html=1;rounded=1;fillColor=#dae8fc;strokeColor=#6c8ebf;opacity=50;" vertex="1" parent="1">
          <mxGeometry x="870" y="120" width="320" height="320" as="geometry" />
        </mxCell>
        <mxCell id="2npnaE28Xi_mpmvtPkLY-18" value="softmax(qk dot prod * scale)" style="rounded=1;whiteSpace=wrap;html=1;" vertex="1" parent="1">
          <mxGeometry x="920" y="210" width="200" height="40" as="geometry" />
        </mxCell>
        <mxCell id="2npnaE28Xi_mpmvtPkLY-22" value="" style="edgeStyle=orthogonalEdgeStyle;rounded=0;orthogonalLoop=1;jettySize=auto;html=1;shape=link;" edge="1" parent="1" source="2npnaE28Xi_mpmvtPkLY-20" target="2npnaE28Xi_mpmvtPkLY-21">
          <mxGeometry relative="1" as="geometry" />
        </mxCell>
        <mxCell id="2npnaE28Xi_mpmvtPkLY-20" value="RoPE 2D on patch pos" style="rounded=1;whiteSpace=wrap;html=1;fillColor=#f8cecc;strokeColor=#b85450;" vertex="1" parent="1">
          <mxGeometry x="920" y="155" width="200" height="40" as="geometry" />
        </mxCell>
        <mxCell id="2npnaE28Xi_mpmvtPkLY-21" value="" style="whiteSpace=wrap;html=1;rounded=1;fillColor=#dae8fc;strokeColor=#6c8ebf;opacity=50;" vertex="1" parent="1">
          <mxGeometry x="1240" y="120" width="360" height="280" as="geometry" />
        </mxCell>
        <mxCell id="2npnaE28Xi_mpmvtPkLY-23" value="dropout" style="rounded=1;whiteSpace=wrap;html=1;" vertex="1" parent="1">
          <mxGeometry x="920" y="265" width="200" height="40" as="geometry" />
        </mxCell>
        <mxCell id="2npnaE28Xi_mpmvtPkLY-24" value="linear (proj)" style="rounded=1;whiteSpace=wrap;html=1;" vertex="1" parent="1">
          <mxGeometry x="920" y="320" width="200" height="40" as="geometry" />
        </mxCell>
        <mxCell id="2npnaE28Xi_mpmvtPkLY-25" value="dropout" style="rounded=1;whiteSpace=wrap;html=1;" vertex="1" parent="1">
          <mxGeometry x="920" y="370" width="200" height="40" as="geometry" />
        </mxCell>
      </root>
    </mxGraphModel>
  </diagram>
</mxfile>
